<?xml version="1.0" encoding="utf-8"?>
<!-- Generator: Adobe Illustrator 22.0.1, SVG Export Plug-In . SVG Version: 6.00 Build 0)  -->
<svg version="1.1" id="Layer_1" xmlns="http://www.w3.org/2000/svg" xmlns:xlink="http://www.w3.org/1999/xlink" x="0px" y="0px"
	 viewBox="0 0 24 24" style="enable-background:new 0 0 24 24;" xml:space="preserve">
<style type="text/css">
	.st0{fill:#EDB415;}
	.st1{font-family:'Arial-BoldMT';}
	.st2{font-size:8.2509px;}
</style>
<path class="st0" d="M12,4.2l3.6,5.4l3.3,1.4l-1.2,0.6l6.3,5.7l0,1.6l-3.7,0l-1.7,0.9l-6.5-1.3l-6.4,1.3l-1.1-0.6l-4.6,0l0-1.6
	l6.4-6L5.1,11l3.3-1.6L12,4.2z M12.1,6.4L9.5,9l-3.6,3.6v2.9l1.7,0.9h1.9v1.7h2.6h2.6v-1.7h1.9l1.7-0.9l0.2-2.7L14.7,9L12.1,6.4z"/>
<g>
	<text transform="matrix(1 0 0 1 9.2498 15.9495)" class="st0 st1 st2">₿</text>
</g>
</svg>
